<svg xmlns="http://www.w3.org/2000/svg" width="303" height="90" fill="none" viewBox="0 0 303 90">
  <path fill="#101957" stroke="#C8B59A" stroke-width=".8" d="m147.122 5.521 1.15 1.149a9.233 9.233 0 0 0-1.954 4.776h-1.703a1.016 1.016 0 0 0 0 2.03h1.712a9.224 9.224 0 0 0 2.014 4.785l-1.217 1.218a1.014 1.014 0 0 0 0 1.436 1.012 1.012 0 0 0 1.436 0l.001-.002 1.213-1.223a9.322 9.322 0 0 0 4.723 1.948v1.747a1.016 1.016 0 0 0 2.031 0V21.64a9.155 9.155 0 0 0 4.751-1.951l1.232 1.226a1.02 1.02 0 0 0 1.44 0h.001a1.016 1.016 0 0 0 0-1.436l-1.217-1.218a9.225 9.225 0 0 0 2.015-4.784h1.635a1.016 1.016 0 0 0 0-2.03h-1.627a9.224 9.224 0 0 0-1.954-4.777l1.149-1.149a1.015 1.015 0 0 0-1.435-1.437l-.001.001-1.152 1.142a9.282 9.282 0 0 0-4.837-2.02V1.615a1.015 1.015 0 1 0-2.031 0v1.592a9.2 9.2 0 0 0-4.809 2.018l-1.134-1.139h-.001a1.011 1.011 0 0 0-1.432 0 1.015 1.015 0 0 0 .001 1.435Zm10.906 5.925L160.475 9c.499.718.846 1.549.993 2.446h-3.44Zm-1.5-4.95c.95.156 1.775.523 2.499 1.054l-2.499 2.499V6.497Zm-2.031.004v3.549L152 7.55a6.05 6.05 0 0 1 2.497-1.05ZM150.602 9l2.447 2.446h-3.44A5.976 5.976 0 0 1 150.602 9Zm-.981 4.477h3.505l-2.46 2.46a5.986 5.986 0 0 1-1.045-2.46Zm4.876 4.867a6.216 6.216 0 0 1-2.406-.986l2.406-2.407v3.393Zm4.439-.984a5.876 5.876 0 0 1-2.408.988V14.95l2.408 2.409Zm1.475-1.424-2.46-2.46h3.505a5.986 5.986 0 0 1-1.045 2.46Z"/>
  <path fill="#101957" d="m31.845 51.49-10.85-24.78h2.975l8.575 21.455-.7 3.325Zm0 0-.315-2.45 9.31-22.435h2.1l-9.485 21.28-.21.455c-.117.28-.268.63-.455 1.05-.163.42-.315.828-.455 1.225-.117.397-.175.688-.175.875h-.315Zm8.015-22.47c.257-.7.21-1.237-.14-1.61s-.747-.56-1.19-.56h-.315v-.35h7.035v.35h-.315c-.513 0-1.062.175-1.645.525-.583.327-1.062.887-1.435 1.68l-1.995-.035Zm-14.945 0-2.905.035c-.35-.793-.817-1.353-1.4-1.68-.583-.35-1.143-.525-1.68-.525h-.28v-.35h7.875v.35h-.315c-.443 0-.84.187-1.19.56-.327.373-.362.91-.105 1.61Zm27.063-2.52V51h-2.275V26.5h2.275Zm-2.17 21.945V51h-2.8v-.35h.455c.607 0 1.12-.21 1.54-.63.444-.443.677-.968.7-1.575h.105Zm0-19.39h-.105a2.162 2.162 0 0 0-.7-1.54 2.04 2.04 0 0 0-1.54-.665h-.455v-.35h2.8v2.555Zm2.065 19.39h.105c.023.607.245 1.132.665 1.575.444.42.968.63 1.575.63h.455V51h-2.8v-2.555Zm0-19.39V26.5h2.8v.35h-.455c-.607 0-1.132.222-1.575.665a2.22 2.22 0 0 0-.665 1.54h-.105ZM63.804 26.5V51H61.53V26.5h2.275Zm9.45 23.415V51H63.7v-1.085h9.555Zm2.135-4.585L73.36 51h-5.81l1.26-1.085c1.237 0 2.24-.187 3.01-.56a5.078 5.078 0 0 0 1.925-1.645c.49-.7.922-1.493 1.295-2.38h.35Zm-13.755 3.115V51h-2.8v-.35h.456c.607 0 1.12-.21 1.54-.63.444-.443.677-.968.7-1.575h.105Zm0-19.39h-.105a2.162 2.162 0 0 0-.7-1.54 2.04 2.04 0 0 0-1.54-.665h-.455v-.35h2.8v2.555Zm2.065 0V26.5h2.8v.35h-.455c-.606 0-1.131.222-1.575.665-.42.42-.641.933-.665 1.54H63.7ZM82.945 26.5V51H80.67V26.5h2.275Zm9.45 23.415V51H82.84v-1.085h9.555Zm2.135-4.585L92.5 51h-5.81l1.26-1.085c1.237 0 2.24-.187 3.01-.56a5.078 5.078 0 0 0 1.925-1.645c.49-.7.922-1.493 1.295-2.38h.35Zm-13.755 3.115V51h-2.8v-.35h.455c.607 0 1.12-.21 1.54-.63.443-.443.677-.968.7-1.575h.105Zm0-19.39h-.105a2.162 2.162 0 0 0-.7-1.54 2.04 2.04 0 0 0-1.54-.665h-.455v-.35h2.8v2.555Zm2.065 0V26.5h2.8v.35h-.455c-.607 0-1.132.222-1.575.665a2.22 2.22 0 0 0-.665 1.54h-.105Zm25.253-3.045 10.36 24.78h-2.975l-8.085-21.455.7-3.325Zm-7.525 22.435c-.163.467-.186.863-.07 1.19.117.327.304.583.56.77.28.163.56.245.84.245h.315V51h-7.035v-.35h.315c.537 0 1.085-.163 1.645-.49.584-.35 1.062-.922 1.435-1.715h1.995Zm7.525-22.435.315 2.45-8.785 22.435h-2.1l8.96-21.28.175-.42c.14-.303.292-.665.455-1.085.187-.42.339-.828.455-1.225.14-.397.21-.688.21-.875h.315Zm4.935 15.435v1.05h-10.955v-1.05h10.955Zm1.575 7h2.87c.35.793.817 1.365 1.4 1.715.584.327 1.144.49 1.68.49h.28V51h-7.875v-.35h.315c.444 0 .84-.187 1.19-.56.35-.397.397-.945.14-1.645Zm26.562-21.84V51h-2.275V26.605h2.275Zm8.995-.14v1.05h-20.265v-1.05h20.265Zm0 .945v2.835l-.35-.035v-.595c0-.583-.21-1.073-.63-1.47a2.084 2.084 0 0 0-1.435-.63v-.105h2.415Zm0-1.575v1.015l-4.27-.385c.514 0 1.05-.035 1.61-.105.584-.07 1.12-.152 1.61-.245s.84-.187 1.05-.28Zm-11.165 22.61V51h-2.8v-.35h.455c.607 0 1.12-.21 1.54-.63a2.28 2.28 0 0 0 .7-1.575h.105Zm2.065 0h.105c.024.607.245 1.132.665 1.575.444.42.969.63 1.575.63h.455V51h-2.8v-2.555Zm-8.75-21.035v.105a2.125 2.125 0 0 0-1.47.63 2 2 0 0 0-.595 1.47v.595l-.35.035V27.41h2.415Zm-2.415-1.575c.234.093.584.187 1.05.28.49.093 1.027.175 1.61.245.584.07 1.12.105 1.61.105l-4.27.385v-1.015Zm44.596.665V51h-2.275V26.5h2.275Zm-16.59 0V51h-2.275V26.5h2.275Zm14.63 11.865v1.05h-14.98v-1.05h14.98Zm-16.8 10.08V51h-2.8v-.35h.455c.607 0 1.12-.21 1.54-.63.443-.443.677-.968.7-1.575h.105Zm0-19.39h-.105a2.162 2.162 0 0 0-.7-1.54 2.04 2.04 0 0 0-1.54-.665h-.455v-.35h2.8v2.555Zm2.065 19.39h.105a2.35 2.35 0 0 0 .665 1.575c.443.42.968.63 1.575.63h.455V51h-2.8v-2.555Zm0-19.39V26.5h2.8v.35h-.455c-.607 0-1.132.222-1.575.665a2.22 2.22 0 0 0-.665 1.54h-.105Zm14.525 19.39V51h-2.8v-.35h.455c.607 0 1.132-.21 1.575-.63.443-.443.665-.968.665-1.575h.105Zm0-19.39h-.105a2.04 2.04 0 0 0-.665-1.54c-.443-.443-.968-.665-1.575-.665h-.455v-.35h2.8v2.555Zm2.065 19.39h.105a2.35 2.35 0 0 0 .665 1.575c.443.42.968.63 1.575.63h.455V51h-2.8v-2.555Zm0-19.39V26.5h2.8v.35h-.455c-.607 0-1.132.222-1.575.665a2.22 2.22 0 0 0-.665 1.54h-.105Zm11.987-2.555V51h-2.275V26.5h2.275Zm9.45 23.415V51h-9.555v-1.085h9.555ZM194.318 38.4v1.05h-8.05V38.4h8.05Zm1.505-11.9v1.085h-9.555V26.5h9.555Zm2.135 18.83-2.03 5.67h-5.81l1.26-1.085c1.236 0 2.24-.187 3.01-.56a5.08 5.08 0 0 0 1.925-1.645c.49-.7.921-1.493 1.295-2.38h.35Zm-3.64-5.95v2.31h-.35v-.525c0-.467-.164-.863-.49-1.19a1.569 1.569 0 0 0-1.19-.525v-.07h2.03Zm0-3.22v2.31h-2.03v-.07a1.752 1.752 0 0 0 1.19-.525c.326-.35.49-.758.49-1.225v-.49h.35Zm1.505-8.68v2.8h-.35v-.63c0-.56-.199-1.038-.595-1.435a2.063 2.063 0 0 0-1.47-.665v-.07h2.415Zm0-1.61v1.015l-4.27-.385c.513 0 1.05-.035 1.61-.105.583-.07 1.12-.152 1.61-.245s.84-.187 1.05-.28Zm-11.62 22.575V51h-2.8v-.35h.455c.606 0 1.12-.21 1.54-.63.443-.443.676-.968.7-1.575h.105Zm0-19.39h-.105a2.04 2.04 0 0 0-.665-1.54c-.444-.443-.969-.665-1.575-.665h-.42l-.035-.35h2.8v2.555Zm21.573-2.555h4.935c1.05 0 1.995.152 2.835.455.863.303 1.587.747 2.17 1.33a5.44 5.44 0 0 1 1.33 2.065c.327.793.49 1.703.49 2.73 0 1.12-.268 2.193-.805 3.22a6.783 6.783 0 0 1-2.135 2.52c-.887.63-1.89.945-3.01.945.397.163.828.502 1.295 1.015.467.49.875.968 1.225 1.435l.455.7c.327.443.723.992 1.19 1.645.49.653.98 1.295 1.47 1.925.49.63.91 1.132 1.26 1.505.467.513.933.968 1.4 1.365a6.01 6.01 0 0 0 1.505.945c.56.233 1.178.35 1.855.35V51h-1.925c-1.073 0-2.007-.163-2.8-.49-.77-.327-1.423-.723-1.96-1.19-.537-.49-.992-.957-1.365-1.4-.07-.093-.268-.362-.595-.805a63.737 63.737 0 0 0-1.12-1.575 128.031 128.031 0 0 0-2.345-3.395l-.525-.77a11.998 11.998 0 0 0-1.47-1.61c-.537-.49-1.12-.735-1.75-.735v-.35l.525.035c.373 0 .817-.012 1.33-.035a11.037 11.037 0 0 0 1.995-.28c.723-.163 1.4-.502 2.03-1.015.63-.513 1.108-1.295 1.435-2.345a6.978 6.978 0 0 0 .21-2.1c-.023-1.587-.432-2.847-1.225-3.78-.77-.957-1.808-1.47-3.115-1.54a19.415 19.415 0 0 0-2.03-.035h-2.415c0-.023-.035-.117-.105-.28a3.498 3.498 0 0 0-.175-.525l-.07-.28Zm.455 0V51h-2.275V26.5h2.275Zm-2.17 21.945V51h-2.8v-.35h.455c.607 0 1.12-.21 1.54-.63.443-.443.677-.968.7-1.575h.105Zm0-19.39h-.105a2.162 2.162 0 0 0-.7-1.54 2.04 2.04 0 0 0-1.54-.665h-.455v-.35h2.8v2.555Zm2.065 19.39h.105c0 .607.222 1.132.665 1.575.443.42.968.63 1.575.63h.42V51h-2.765v-2.555Zm28.227-22.435 10.36 24.78h-2.975l-8.085-21.455.7-3.325Zm-7.525 22.435c-.163.467-.187.863-.07 1.19.117.327.303.583.56.77.28.163.56.245.84.245h.315V51h-7.035v-.35h.315c.537 0 1.085-.163 1.645-.49.583-.35 1.062-.922 1.435-1.715h1.995Zm7.525-22.435.315 2.45-8.785 22.435h-2.1l8.96-21.28.175-.42c.14-.303.292-.665.455-1.085.187-.42.338-.828.455-1.225.14-.397.21-.688.21-.875h.315Zm4.935 15.435v1.05h-10.955v-1.05h10.955Zm1.575 7h2.87c.35.793.817 1.365 1.4 1.715.583.327 1.143.49 1.68.49h.28V51h-7.875v-.35h.315c.443 0 .84-.187 1.19-.56.35-.397.397-.945.14-1.645ZM253.32 26.5h4.62c1.493 0 2.777.268 3.85.805a5.748 5.748 0 0 1 2.485 2.345c.583 1.003.875 2.205.875 3.605 0 1.073-.21 2.042-.63 2.905-.42.84-.98 1.552-1.68 2.135a7.445 7.445 0 0 1-2.38 1.33 7.324 7.324 0 0 1-2.765.315 6.934 6.934 0 0 1-2.73-.805v-.35l.595.105c.397.047.898.058 1.505.035a8.818 8.818 0 0 0 1.96-.385c.7-.233 1.342-.63 1.925-1.19.607-.56 1.062-1.342 1.365-2.345a6.978 6.978 0 0 0 .21-2.1c-.023-1.61-.443-2.905-1.26-3.885s-1.972-1.47-3.465-1.47h-4.13l-.105-.245a3.498 3.498 0 0 0-.175-.525l-.07-.28Zm.455 0V51H251.5V26.5h2.275Zm-2.17 21.945V51h-2.8v-.35h.455c.607 0 1.12-.21 1.54-.63.443-.443.677-.968.7-1.575h.105Zm0-19.39h-.105a2.04 2.04 0 0 0-.665-1.54c-.443-.443-.968-.665-1.575-.665h-.42l-.035-.35h2.8v2.555Zm2.065 19.39h.105a2.35 2.35 0 0 0 .665 1.575c.443.42.968.63 1.575.63h.455V51h-2.8v-2.555Zm18.485-21.91 6.86 12.775-1.505 1.225-8.365-14h3.01Zm7.35 13.195V51h-2.275V39.73h2.275Zm6.23-13.195h2.135l-8.61 13.93-1.26-.385 7.735-13.545ZM284.3 29.02c.21-.327.269-.653.175-.98a1.573 1.573 0 0 0-.525-.84 1.264 1.264 0 0 0-.875-.35h-.42v-.35h7.77v.35h-.49c-.723 0-1.4.21-2.03.63-.63.42-1.131.898-1.505 1.435l-2.1.105Zm-10.815 0-2.94-.105c-.326-.537-.805-1.015-1.435-1.435a3.646 3.646 0 0 0-2.065-.63h-.49v-.35h8.61v.35h-.455c-.513 0-.91.245-1.19.735-.256.467-.268.945-.035 1.435Zm3.815 19.425V51h-2.765v-.35h.455c.607 0 1.12-.21 1.54-.63a2.28 2.28 0 0 0 .7-1.575h.07Zm2.1 0h.105c0 .607.222 1.132.665 1.575.444.42.969.63 1.575.63h.42V51H279.4v-2.555ZM101.448 75l4.424-10.542h.084L110.366 75h-1.554l-3.304-8.414.966-.63L102.778 75h-1.33Zm2.59-3.836h3.766l.448 1.176h-4.606l.392-1.176Zm14.434 2.52h3.472V75h-5.278l1.806-1.316Zm-7.294-3.738c0-.7.13-1.358.392-1.974a5.27 5.27 0 0 1 1.12-1.652 5.213 5.213 0 0 1 1.638-1.134 4.874 4.874 0 0 1 2.016-.42c.709 0 1.372.14 1.988.42.625.27 1.176.649 1.652 1.134a5.178 5.178 0 0 1 1.134 1.652c.27.616.406 1.274.406 1.974 0 .719-.136 1.39-.406 2.016a5.178 5.178 0 0 1-1.134 1.652 5.407 5.407 0 0 1-1.652 1.106 5.039 5.039 0 0 1-1.988.392 5.16 5.16 0 0 1-2.016-.392 5.244 5.244 0 0 1-1.638-1.092 5.105 5.105 0 0 1-1.12-1.638 5.236 5.236 0 0 1-.392-2.044Zm1.4.014c0 .532.098 1.031.294 1.498.196.457.466.863.812 1.218a3.685 3.685 0 0 0 2.688 1.12c.522 0 1.012-.098 1.47-.294a3.546 3.546 0 0 0 1.19-.826 4.11 4.11 0 0 0 .798-1.218c.196-.467.294-.97.294-1.512 0-.523-.098-1.017-.294-1.484a3.77 3.77 0 0 0-.812-1.218 3.706 3.706 0 0 0-1.204-.826 3.552 3.552 0 0 0-1.47-.308 3.58 3.58 0 0 0-1.484.308 3.685 3.685 0 0 0-1.204.826 3.716 3.716 0 0 0-.798 1.232c-.187.467-.28.961-.28 1.484Zm12.862 1.456c0 .457.107.868.322 1.232.224.355.518.635.882.84.364.205.774.308 1.232.308.476 0 .9-.103 1.274-.308.373-.205.667-.485.882-.84.214-.364.322-.775.322-1.232v-6.538h1.33v6.58c0 .737-.173 1.381-.518 1.932a3.41 3.41 0 0 1-1.372 1.274c-.57.299-1.209.448-1.918.448-.71 0-1.349-.15-1.918-.448a3.425 3.425 0 0 1-1.358-1.274c-.336-.55-.504-1.195-.504-1.932v-6.58h1.344v6.538ZM133.276 75l4.424-10.542h.084L142.194 75h-1.554l-3.304-8.414.966-.63L134.606 75h-1.33Zm2.59-3.836h3.766l.448 1.176h-4.606l.392-1.176Zm30.96-1.218c0-.7.131-1.358.392-1.974a5.286 5.286 0 0 1 1.12-1.652 5.213 5.213 0 0 1 1.638-1.134 4.874 4.874 0 0 1 2.016-.42c.709 0 1.372.14 1.988.42.625.27 1.176.649 1.652 1.134a5.178 5.178 0 0 1 1.134 1.652c.271.616.406 1.274.406 1.974 0 .719-.135 1.39-.406 2.016a5.178 5.178 0 0 1-1.134 1.652 5.407 5.407 0 0 1-1.652 1.106 5.039 5.039 0 0 1-1.988.392 5.16 5.16 0 0 1-2.016-.392 5.244 5.244 0 0 1-1.638-1.092 5.12 5.12 0 0 1-1.12-1.638 5.254 5.254 0 0 1-.392-2.044Zm1.4.014c0 .532.098 1.031.294 1.498.196.457.467.863.812 1.218.345.355.747.635 1.204.84.457.196.952.294 1.484.294a3.69 3.69 0 0 0 1.47-.294 3.723 3.723 0 0 0 1.19-.84 4.11 4.11 0 0 0 .798-1.218c.196-.467.294-.97.294-1.512a3.83 3.83 0 0 0-.294-1.498 3.894 3.894 0 0 0-.812-1.246 3.695 3.695 0 0 0-1.204-.826 3.546 3.546 0 0 0-1.47-.308 3.58 3.58 0 0 0-1.484.308 3.885 3.885 0 0 0-1.204.84c-.345.355-.611.77-.798 1.246a3.99 3.99 0 0 0-.28 1.498Zm11.234-5.082h1.358v8.82h5.138V75h-6.496V64.878Zm8.709 0h6.58v1.302h-5.222v3.08h4.662v1.302h-4.662v3.136h5.418V75h-6.776V64.878ZM196.294 75l4.424-10.542h.084L205.212 75h-1.554l-3.304-8.414.966-.63L197.624 75h-1.33Zm2.59-3.836h3.766l.448 1.176h-4.606l.392-1.176Z"/>
  <path fill="#C8B59A" d="M0 13h130v-1H0zm115 70h80v-1h-80z"/>
  <path fill="#C8B59A" d="M155 90V60h-1v30zm23-77h125v-1H178z"/>
</svg>
